PathFileType	4	(X/Y/Z)	Apose_0-50.trc
DataRate	CameraRate	NumFrames	NumMarkers	Units	OrigDataRate	OrigDataStartFrame	OrigNumFrames
30	30	8	22	m	30	20	50
Frame#	Time	Hip			RHip			RKnee			RAnkle			RBigToe			RSmallToe			RHeel			LHip			LKnee			LAnkle			LBigToe			LSmallToe			LHeel			Neck			Head			Nose			RShoulder			RElbow			RWrist			LShoulder			LElbow			LWrist		
		X1	Y1	Z1	X2	Y2	Z2	X3	Y3	Z3	X4	Y4	Z4	X5	Y5	Z5	X6	Y6	Z6	X7	Y7	Z7	X8	Y8	Z8	X9	Y9	Z9	X10	Y10	Z10	X11	Y11	Z11	X12	Y12	Z12	X13	Y13	Z13	X14	Y14	Z14	X15	Y15	Z15	X16	Y16	Z16	X17	Y17	Z17	X18	Y18	Z18	X19	Y19	Z19	X20	Y20	Z20	X21	Y21	Z21	X22	Y22	Z22
21	0.7	0.033517254324185244	0.9230915798994017	0.3574100927537115	0.02158479433215443	0.8873098018563735	0.4630556636516103	0.0012904353482473794	0.5086168905348376	0.4974584644222999	-0.006200956404349619	0.11329520657243757	0.5156104476811969	0.18906035750552644	0.033406183960628555	0.5587068624722682	0.145814224909431	0.032624556204015685	0.6275753373182491	-0.04200347953901856	0.03969507701588386	0.5013319701070353	0.026993802381123307	0.8854820254908046	0.2452330025038818	0.00844500848505156	0.510348936764363	0.22463501524767654	0.0015385493012947816	0.12409060529456192	0.20486910342106623	0.2157191579849952	0.04834805048939122	0.1871208360415566	0.16506120854737533	0.036886590479159966	0.12331658899241803	-0.04760600665990837	0.05274946741485866	0.20040804118407368	0.05472421888896817	1.5793642359498092	0.3497072463653047	0.26437375160178467	1.7649261624439456	0.329324231637561	0.2824214965174141	1.6049363674503045	0.32852869384293115	0.019620744865461646	1.4981745954345647	0.5312126365479306	0.05826103901696061	1.2357619492137322	0.7194299956407718	0.1172505260958927	1.0509542982380096	0.8902070627882764	0.013579867852118637	1.4827410132752812	0.14724539316451124	0.025721949297982303	1.2276645326274487	0.0024214253020174983	0.07685685076033955	1.0170786320242275	-0.15011619231619455
22	0.7333333333333333	0.03357560555801327	0.9229541667084471	0.3572766141942077	0.021954709525393135	0.8870436422422194	0.46307908217581484	0.0017065876078622814	0.5089920003493242	0.4971847953255113	-0.005592365980130999	0.11172903602362957	0.5155142698983145	0.18858889477684096	0.03324298638807863	0.5586761475565784	0.14502265755082824	0.033591808699643545	0.6276788329898084	-0.041036889959744326	0.03867711379587889	0.5000928977002334	0.027041144676423254	0.8847228775873742	0.24545614350514228	0.009231488052926604	0.5100002593556204	0.2247050875996674	0.0018338672656593902	0.12373747982136521	0.20507053049842505	0.21624538836777824	0.048397014443892536	0.18693194618361403	0.16516675225916014	0.03719095067707197	0.12306254561900909	-0.04671779882130163	0.054549587834385245	0.19996758744085613	0.05629339008897165	1.5821847687562627	0.35030820406666957	0.2648830766923077	1.7665030085185718	0.32792923584923284	0.2716506822173097	1.6011601318727264	0.3272735661341035	0.020322177441361146	1.4979079053635918	0.5315334323037357	0.06103461748038135	1.2354447532182344	0.7201834337599221	0.11732418039422868	1.051592250548686	0.8893503645139218	0.013295372444771828	1.4831994129078563	0.14605526811001915	0.026368349660752088	1.22830197065478	0.0018237687229843793	0.07811134086025752	1.0179187432972088	-0.15054660155830296
23	0.7666666666666667	0.03352069917438498	0.9229548836268721	0.35714865929388884	0.022457275983511125	0.8865859083418132	0.46305281038326895	0.002065331388938837	0.5092736476111082	0.49682893843996495	-0.005186745908043492	0.11072772800109941	0.5154174665671182	0.1884125596282123	0.033241228348866246	0.5588694282739052	0.14465999439097968	0.03411438737375485	0.6276324259860039	-0.040748145111683294	0.03850917742216305	0.4994496520827049	0.027069326161462196	0.8840345831161834	0.2456652519832811	0.00994703298779749	0.5096622106986698	0.2246559337907328	0.001994959654670646	0.12346484810126658	0.20532919735150176	0.21693076913995138	0.048237790206093534	0.186970523325438	0.16535918000443095	0.03717579907909961	0.12303151354896674	-0.046102321315270776	0.05557440613017458	0.20003858401291466	0.057187893034091955	1.584330863270236	0.35067937775172087	0.26175888330465125	1.7671744407493601	0.3290798289962352	0.26726414402667864	1.6000723588632142	0.32700799299720973	0.020661184016076032	1.4976093406504807	0.531900230315685	0.06423053580848427	1.2360139451718266	0.7200098896307978	0.11726374572205216	1.0521273774027589	0.8885642054825954	0.013145766748547024	1.4836508112692735	0.14501281601410704	0.026823805277925945	1.2287924059222446	0.0013618766971541622	0.07946989903267701	1.0190210053505764	-0.1505721740736888
24	0.8	0.0333747950059143	0.9230907409063321	0.3569924951606739	0.023056953707998096	0.8858611309261023	0.462981713026576	0.002423136105991707	0.5093765493960389	0.49642120493863456	-0.004989139551559496	0.11027692601567944	0.515367939486209	0.18857543500919793	0.0333556734805339	0.5593232181244333	0.14467175129107804	0.03423158389626517	0.6276238602408101	-0.04118359026234456	0.03924954956390518	0.49952403710116977	0.027053226565862305	0.8834351712675107	0.2458490213860614	0.010452680120759464	0.5093458240685803	0.22457613821995945	0.0020837833095914593	0.12324118329265168	0.20571952230681123	0.21764996555280744	0.047947997045724756	0.18718249196692918	0.16565663830467076	0.03684802611064788	0.12319318243291395	-0.04544041116798429	0.056327496417911245	0.20022618357300837	0.05672757275118395	1.584810239847623	0.35043965946594274	0.25599812515757187	1.7669475460169217	0.33160583191103365	0.27078476507014815	1.6022704499865195	0.3279573842724003	0.020670127356463074	1.4972420706980367	0.5322790375136455	0.0673169486706356	1.237301092078056	0.7189565635590928	0.1170697032126273	1.0524631448041661	0.8879433970194083	0.013137377598088947	1.4841054706806442	0.14427576494181613	0.027039384999582524	1.2290668578929436	0.0010253308955425523	0.08066847248169166	1.0201557399311447	-0.15037881738064468
25	0.8333333333333334	0.033251579907755686	0.9232846771016612	0.35677739227866695	0.02366810961864561	0.8849698505756081	0.4628517530339431	0.0027746693906777896	0.5092530876743713	0.49600536786012217	-0.004939340632389951	0.11021986023399306	0.515420859145383	0.1890936392452793	0.033595438747427535	0.5599975133081831	0.14491858054789633	0.034031859189272	0.627751392738768	-0.042001118316577817	0.04056484535007227	0.5000967520499018	0.02702999241554266	0.8829588496767247	0.24591005466086718	0.010699806214037768	0.5090317823457513	0.22456201009695784	0.00228385240121844	0.12291062548945283	0.2062921178115684	0.2182836461945329	0.04764512826012296	0.18750151336807644	0.1660360664125893	0.036339138077813166	0.12348346290738149	-0.04475232964104125	0.05682428525657611	0.20043373820394228	0.05495466116131674	1.583564125482398	0.34956246798008134	0.24980117567417454	1.766282161535615	0.33392960488573503	0.28030229647855215	1.606933149444869	0.3298616117274915	0.020487874936459087	1.496849901177953	0.5326066464673372	0.06981803129292534	1.2386944990205884	0.7175877938372783	0.11681682794741068	1.0524856741326363	0.8875566403335133	0.013325483667922423	1.4845787013962688	0.1439019494109248	0.027091232521363667	1.2291586870020677	0.0008134605712139921	0.08132300415165884	1.020955881949244	-0.1502887475948267
26	0.8666666666666667	0.033303505597432094	0.9234647465472609	0.35648440535822173	0.024219171864674906	0.8841543667799981	0.46266150129006584	0.0030766633717666356	0.5089563664178423	0.49563831628203436	-0.004944777466127804	0.11039975300395531	0.5155730813249162	0.18991987158881782	0.03396812588522071	0.5606919568264195	0.14525132935184204	0.033624880643094865	0.6279435854863731	-0.04279440726146218	0.04197413162611688	0.5008223251910419	0.027096368963477765	0.8826525304158618	0.24573636950484495	0.010771557243954077	0.5087543910616743	0.2246376509746557	0.0027708036214144837	0.12231213569958224	0.20701250869271998	0.2187710285313559	0.047404954705600466	0.18785958998696264	0.16642896128755166	0.03580447139657201	0.12383733714717077	-0.04431712584882203	0.056811083492597676	0.20078256886259946	0.052607464928242836	1.5814971744464903	0.34840205114667777	0.24475861059528284	1.7657168730631323	0.33540763505532845	0.29197860840413686	1.6125571181313672	0.33209697442195535	0.020256103710873732	1.496543169521176	0.532787570157952	0.07148760542418986	1.2396759993481157	0.7164754324682152	0.11663256618965513	1.0521151839096805	0.8874272335155748	0.01373537586455523	1.4850575610500523	0.14384225158139227	0.027151091790536878	1.229156285985913	0.000724802239030402	0.08128732705395851	1.021200614370851	-0.1504729767593584
27	0.9	0.03357963081114364	0.9235884102504753	0.3561137184502421	0.024668595552885992	0.8835838009077412	0.46242819192086426	0.0033009735229837752	0.5086263834353526	0.49535883447507617	-0.004923170016987337	0.11073622338806018	0.5157413980046665	0.19092367628108384	0.03437760015270041	0.5611442267516186	0.14561336996463026	0.0331239969002944	0.6280727534346038	-0.04323417174236702	0.04303151946898112	0.5013330020378431	0.027284741329171178	0.882518537143764	0.24528666224075166	0.010777302661996342	0.5086057126529457	0.2247400322218097	0.003543016999136643	0.12147377872694017	0.20778614030273174	0.219127516403699	0.04727098117613869	0.18818651789514532	0.1667539982940554	0.035326416558247184	0.12419860183794275	-0.044384453085038376	0.05613905643357326	0.20140205520996624	0.05044965491980836	1.5795838987154127	0.34735706442866865	0.2413964015023816	1.7655361743403557	0.3360944416917795	0.3009570321825589	1.6171380997673366	0.33385088462055945	0.02007515131947408	1.4963977764099161	0.5327861423838455	0.07230956794232184	1.240097940342404	0.7158394228889192	0.11665100973528258	1.0514101672629999	0.8874934917897798	0.01426486732832419	1.4854621505646837	0.14397858504123925	0.02735727307713124	1.2291240302056208	0.0006948003983626036	0.0807258907753237	1.0209664916690084	-0.150830379946726
28	0.9333333333333332	0.03398258008821233	0.9236211301887478	0.3557056366842483	0.025017472582492418	0.8832494561917039	0.46218210161009715	0.0034597947575272492	0.5084154983815974	0.4951767351288531	-0.004867212907570098	0.11121472324610676	0.51581577205477	0.1918535292456262	0.03461577583190756	0.5611535800631952	0.14601158771155048	0.032638685733734824	0.6281020076056025	-0.04306204744971456	0.043407169727350974	0.5013068623077188	0.02752807279189091	0.8824776819236557	0.24462566457500734	0.010792942171039557	0.5086349366046241	0.2247812049717745	0.004386559109972062	0.120664797616013	0.20849277624382892	0.21941938116797374	0.047278947513207	0.18841207169925245	0.16696235018661887	0.03493936437688826	0.1245232791675791	-0.04501543385648376	0.054824462656917344	0.2023330847993108	0.04887470774798025	1.5782894269000194	0.34664120512213453	0.2395566090554822	1.7657286348687633	0.33625171167147355	0.3029666884561088	1.6186961627273975	0.33445646776047905	0.020001402414659246	1.4964046677051221	0.532677970579503	0.07234622380674778	1.2400521744541346	0.7155896111705226	0.1169701675901148	1.0505693035352741	0.8876402630748894	0.014746622617092186	1.48570503204603	0.14417255133476076	0.027730603790805497	1.229082125279129	0.00061725044828252	0.07990410140327134	1.0205211169895325	-0.1511643915611721
